<?xml version="1.0" encoding="UTF-8"?>
<svg
  xmlns="http://www.w3.org/2000/svg"
  width="1800"
  height="1460"
  viewBox="0 0 1800 1460"
  role="img"
  aria-labelledby="title desc"
>
  <title id="title">SinLess Games 24U Rack Professional Front and Rear Plan</title>
  <desc id="desc">
    A professional 24U rack plan showing front and rear rack faces, UniFi networking,
    rear 10Gb SFP+ backbone, five 2U Dell R710 servers, 4U disk shelf, 3U UPS,
    patch panel, Raspberry Pi shelf, power distribution, and cable routing.
  </desc>

  <defs>
    <style>
      .bg { fill: #f8fafc; }
      .title { font-family: Inter, Segoe UI, Arial, sans-serif; font-size: 32px; font-weight: 800; fill: #0f172a; }
      .subtitle { font-family: Inter, Segoe UI, Arial, sans-serif; font-size: 15px; font-weight: 500; fill: #475569; }
      .section-title { font-family: Inter, Segoe UI, Arial, sans-serif; font-size: 22px; font-weight: 800; fill: #0f172a; }
      .rack-shell { fill: #111827; stroke: #020617; stroke-width: 3; }
      .rack-inner { fill: #e5e7eb; stroke: #334155; stroke-width: 2; }
      .u-line { stroke: #94a3b8; stroke-width: 1; }
      .u-label { font-family: JetBrains Mono, Consolas, monospace; font-size: 12px; font-weight: 800; fill: #334155; }
      .device-text { font-family: Inter, Segoe UI, Arial, sans-serif; font-size: 16px; font-weight: 800; fill: #f8fafc; }
      .device-sub { font-family: Inter, Segoe UI, Arial, sans-serif; font-size: 11px; font-weight: 600; fill: #e2e8f0; }
      .tiny { font-family: Inter, Segoe UI, Arial, sans-serif; font-size: 10px; font-weight: 600; fill: #e2e8f0; }
      .dark-tiny { font-family: Inter, Segoe UI, Arial, sans-serif; font-size: 10px; font-weight: 700; fill: #334155; }
      .note { font-family: Inter, Segoe UI, Arial, sans-serif; font-size: 12px; font-weight: 600; fill: #475569; }
      .muted { font-family: Inter, Segoe UI, Arial, sans-serif; font-size: 12px; font-weight: 500; fill: #64748b; }
      .rack-face-label { font-family: Inter, Segoe UI, Arial, sans-serif; font-size: 18px; font-weight: 900; fill: #0f172a; }

      .cable-manager { fill: #334155; stroke: #0f172a; stroke-width: 2; }
      .patch { fill: #3f3f46; stroke: #18181b; stroke-width: 2; }
      .switch { fill: #166534; stroke: #052e16; stroke-width: 2; }
      .gateway { fill: #7f1d1d; stroke: #450a0a; stroke-width: 2; }
      .agg { fill: #1e3a8a; stroke: #172554; stroke-width: 2; }
      .pi { fill: #0f766e; stroke: #134e4a; stroke-width: 2; }
      .server { fill: #92400e; stroke: #451a03; stroke-width: 2; }
      .storage { fill: #4c1d95; stroke: #2e1065; stroke-width: 2; }
      .ups { fill: #111827; stroke: #020617; stroke-width: 2; }
      .pdu { fill: #991b1b; stroke: #450a0a; stroke-width: 2; }
      .blank { fill: #f1f5f9; stroke: #cbd5e1; stroke-width: 1.5; stroke-dasharray: 6 5; }

      .port { fill: #020617; stroke: #cbd5e1; stroke-width: 0.7; }
      .sfp { fill: #38bdf8; stroke: #082f49; stroke-width: 1; }
      .power-dot { fill: #f97316; stroke: #7c2d12; stroke-width: 1; }
      .status { fill: #22c55e; stroke: #14532d; stroke-width: 1; }

      .backbone { stroke: #0ea5e9; stroke-width: 5; fill: none; stroke-linecap: round; stroke-linejoin: round; }
      .backbone-thin { stroke: #0ea5e9; stroke-width: 2.5; fill: none; stroke-linecap: round; stroke-linejoin: round; }
      .sas { stroke: #a855f7; stroke-width: 3; fill: none; stroke-linecap: round; stroke-linejoin: round; stroke-dasharray: 8 5; }
      .power-a { stroke: #f97316; stroke-width: 2.5; fill: none; stroke-linecap: round; stroke-linejoin: round; }
      .power-b { stroke: #ef4444; stroke-width: 2.5; fill: none; stroke-linecap: round; stroke-linejoin: round; }
      .mgmt { stroke: #22c55e; stroke-width: 2; fill: none; stroke-linecap: round; stroke-linejoin: round; stroke-dasharray: 4 4; }

      .legend-box { fill: #ffffff; stroke: #cbd5e1; stroke-width: 1.5; rx: 12; }
    </style>
  </defs>

  <rect class="bg" x="0" y="0" width="1800" height="1460"/>

  <text class="title" x="70" y="60">SinLess Games 24U Rack Plan</text>
  <text class="subtitle" x="70" y="88">
    Front + rear layout with rear 10Gb SFP+ backbone, dual power distribution, 5x 2U R710 nodes, 4U disk shelf, 3U UPS, UniFi network upgrade path
  </text>

  <text class="rack-face-label" x="245" y="135">FRONT FACE</text>
  <text class="rack-face-label" x="1035" y="135">REAR FACE / CABLING FACE</text>

  <!-- Front Rack Shell -->
  <rect class="rack-shell" x="70" y="150" width="620" height="1048" rx="12"/>
  <rect class="rack-inner" x="105" y="170" width="550" height="1008" rx="4"/>

  <!-- Rear Rack Shell -->
  <rect class="rack-shell" x="850" y="150" width="620" height="1048" rx="12"/>
  <rect class="rack-inner" x="885" y="170" width="550" height="1008" rx="4"/>

  <!-- Rear 0U PDUs -->
  <rect class="pdu" x="790" y="170" width="42" height="1008" rx="8"/>
  <text class="device-sub" transform="translate(815 710) rotate(-90)" text-anchor="middle">0U PDU A / UPS BANK A</text>

  <rect class="pdu" x="1490" y="170" width="42" height="1008" rx="8"/>
  <text class="device-sub" transform="translate(1515 710) rotate(-90)" text-anchor="middle">0U PDU B / UPS BANK B</text>

  <!-- Rack Unit Lines Front + Rear -->
  <g id="unit-grid">
    <line class="u-line" x1="105" y1="170" x2="655" y2="170"/><line class="u-line" x1="885" y1="170" x2="1435" y2="170"/>
    <line class="u-line" x1="105" y1="212" x2="655" y2="212"/><line class="u-line" x1="885" y1="212" x2="1435" y2="212"/>
    <line class="u-line" x1="105" y1="254" x2="655" y2="254"/><line class="u-line" x1="885" y1="254" x2="1435" y2="254"/>
    <line class="u-line" x1="105" y1="296" x2="655" y2="296"/><line class="u-line" x1="885" y1="296" x2="1435" y2="296"/>
    <line class="u-line" x1="105" y1="338" x2="655" y2="338"/><line class="u-line" x1="885" y1="338" x2="1435" y2="338"/>
    <line class="u-line" x1="105" y1="380" x2="655" y2="380"/><line class="u-line" x1="885" y1="380" x2="1435" y2="380"/>
    <line class="u-line" x1="105" y1="422" x2="655" y2="422"/><line class="u-line" x1="885" y1="422" x2="1435" y2="422"/>
    <line class="u-line" x1="105" y1="464" x2="655" y2="464"/><line class="u-line" x1="885" y1="464" x2="1435" y2="464"/>
    <line class="u-line" x1="105" y1="506" x2="655" y2="506"/><line class="u-line" x1="885" y1="506" x2="1435" y2="506"/>
    <line class="u-line" x1="105" y1="548" x2="655" y2="548"/><line class="u-line" x1="885" y1="548" x2="1435" y2="548"/>
    <line class="u-line" x1="105" y1="590" x2="655" y2="590"/><line class="u-line" x1="885" y1="590" x2="1435" y2="590"/>
    <line class="u-line" x1="105" y1="632" x2="655" y2="632"/><line class="u-line" x1="885" y1="632" x2="1435" y2="632"/>
    <line class="u-line" x1="105" y1="674" x2="655" y2="674"/><line class="u-line" x1="885" y1="674" x2="1435" y2="674"/>
    <line class="u-line" x1="105" y1="716" x2="655" y2="716"/><line class="u-line" x1="885" y1="716" x2="1435" y2="716"/>
    <line class="u-line" x1="105" y1="758" x2="655" y2="758"/><line class="u-line" x1="885" y1="758" x2="1435" y2="758"/>
    <line class="u-line" x1="105" y1="800" x2="655" y2="800"/><line class="u-line" x1="885" y1="800" x2="1435" y2="800"/>
    <line class="u-line" x1="105" y1="842" x2="655" y2="842"/><line class="u-line" x1="885" y1="842" x2="1435" y2="842"/>
    <line class="u-line" x1="105" y1="884" x2="655" y2="884"/><line class="u-line" x1="885" y1="884" x2="1435" y2="884"/>
    <line class="u-line" x1="105" y1="926" x2="655" y2="926"/><line class="u-line" x1="885" y1="926" x2="1435" y2="926"/>
    <line class="u-line" x1="105" y1="968" x2="655" y2="968"/><line class="u-line" x1="885" y1="968" x2="1435" y2="968"/>
    <line class="u-line" x1="105" y1="1010" x2="655" y2="1010"/><line class="u-line" x1="885" y1="1010" x2="1435" y2="1010"/>
    <line class="u-line" x1="105" y1="1052" x2="655" y2="1052"/><line class="u-line" x1="885" y1="1052" x2="1435" y2="1052"/>
    <line class="u-line" x1="105" y1="1094" x2="655" y2="1094"/><line class="u-line" x1="885" y1="1094" x2="1435" y2="1094"/>
    <line class="u-line" x1="105" y1="1136" x2="655" y2="1136"/><line class="u-line" x1="885" y1="1136" x2="1435" y2="1136"/>
    <line class="u-line" x1="105" y1="1178" x2="655" y2="1178"/><line class="u-line" x1="885" y1="1178" x2="1435" y2="1178"/>
  </g>

  <!-- U Labels -->
  <g id="u-labels">
    <text class="u-label" x="112" y="196">U24</text><text class="u-label" x="892" y="196">U24</text>
    <text class="u-label" x="112" y="238">U23</text><text class="u-label" x="892" y="238">U23</text>
    <text class="u-label" x="112" y="280">U22</text><text class="u-label" x="892" y="280">U22</text>
    <text class="u-label" x="112" y="322">U21</text><text class="u-label" x="892" y="322">U21</text>
    <text class="u-label" x="112" y="364">U20</text><text class="u-label" x="892" y="364">U20</text>
    <text class="u-label" x="112" y="406">U19</text><text class="u-label" x="892" y="406">U19</text>
    <text class="u-label" x="112" y="448">U18</text><text class="u-label" x="892" y="448">U18</text>
    <text class="u-label" x="112" y="490">U17</text><text class="u-label" x="892" y="490">U17</text>
    <text class="u-label" x="112" y="532">U16</text><text class="u-label" x="892" y="532">U16</text>
    <text class="u-label" x="112" y="574">U15</text><text class="u-label" x="892" y="574">U15</text>
    <text class="u-label" x="112" y="616">U14</text><text class="u-label" x="892" y="616">U14</text>
    <text class="u-label" x="112" y="658">U13</text><text class="u-label" x="892" y="658">U13</text>
    <text class="u-label" x="112" y="700">U12</text><text class="u-label" x="892" y="700">U12</text>
    <text class="u-label" x="112" y="742">U11</text><text class="u-label" x="892" y="742">U11</text>
    <text class="u-label" x="112" y="784">U10</text><text class="u-label" x="892" y="784">U10</text>
    <text class="u-label" x="116" y="826">U9</text><text class="u-label" x="896" y="826">U9</text>
    <text class="u-label" x="116" y="868">U8</text><text class="u-label" x="896" y="868">U8</text>
    <text class="u-label" x="116" y="910">U7</text><text class="u-label" x="896" y="910">U7</text>
    <text class="u-label" x="116" y="952">U6</text><text class="u-label" x="896" y="952">U6</text>
    <text class="u-label" x="116" y="994">U5</text><text class="u-label" x="896" y="994">U5</text>
    <text class="u-label" x="116" y="1036">U4</text><text class="u-label" x="896" y="1036">U4</text>
    <text class="u-label" x="116" y="1078">U3</text><text class="u-label" x="896" y="1078">U3</text>
    <text class="u-label" x="116" y="1120">U2</text><text class="u-label" x="896" y="1120">U2</text>
    <text class="u-label" x="116" y="1162">U1</text><text class="u-label" x="896" y="1162">U1</text>
  </g>

  <!-- FRONT EQUIPMENT -->
  <g id="front-equipment">
    <rect class="cable-manager" x="150" y="174" width="480" height="34" rx="6"/>
    <text class="device-text" x="390" y="196" text-anchor="middle">1U Horizontal Cable Manager / Brush Panel</text>

    <rect class="patch" x="150" y="216" width="480" height="76" rx="6"/>
    <text class="device-text" x="390" y="246" text-anchor="middle">48-Port Patch Panel</text>
    <text class="device-sub" x="390" y="266" text-anchor="middle">2U front patching field / short patch leads to access switch</text>

    <rect class="switch" x="150" y="300" width="480" height="34" rx="6"/>
    <text class="device-text" x="390" y="322" text-anchor="middle">UniFi Pro Max 48 PoE</text>

    <rect class="gateway" x="150" y="342" width="480" height="34" rx="6"/>
    <text class="device-text" x="390" y="364" text-anchor="middle">UniFi Enterprise Fortress Gateway / UDM-Pro-Max</text>

    <rect class="cable-manager" x="150" y="384" width="480" height="34" rx="6"/>
    <text class="device-text" x="390" y="406" text-anchor="middle">1U Cable Manager / Rear Backbone Service Gap</text>

    <rect class="pi" x="150" y="426" width="480" height="34" rx="6"/>
    <text class="device-text" x="390" y="448" text-anchor="middle">4x Raspberry Pi Shelf / Shallow Front Mount</text>

    <rect class="server" x="150" y="468" width="480" height="76" rx="6"/>
    <text class="device-text" x="390" y="498" text-anchor="middle">pve-01 — Dell R710</text>
    <text class="device-sub" x="390" y="518" text-anchor="middle">2U / owned / dual 10Gb SFP+ to rear backbone</text>

    <rect class="server" x="150" y="552" width="480" height="76" rx="6"/>
    <text class="device-text" x="390" y="582" text-anchor="middle">pve-02 — Dell R710</text>
    <text class="device-sub" x="390" y="602" text-anchor="middle">2U / owned / dual 10Gb SFP+ to rear backbone</text>

    <rect class="server" x="150" y="636" width="480" height="76" rx="6"/>
    <text class="device-text" x="390" y="666" text-anchor="middle">pve-03 — Dell R710</text>
    <text class="device-sub" x="390" y="686" text-anchor="middle">2U / planned / dual 10Gb SFP+ to rear backbone</text>

    <rect class="server" x="150" y="720" width="480" height="76" rx="6"/>
    <text class="device-text" x="390" y="750" text-anchor="middle">pve-04 — Dell R710</text>
    <text class="device-sub" x="390" y="770" text-anchor="middle">2U / planned / dual 10Gb SFP+ to rear backbone</text>

    <rect class="server" x="150" y="804" width="480" height="76" rx="6"/>
    <text class="device-text" x="390" y="834" text-anchor="middle">pve-05 — Dell R710</text>
    <text class="device-sub" x="390" y="854" text-anchor="middle">2U / planned / dual 10Gb SFP+ to rear backbone</text>

    <rect class="storage" x="150" y="888" width="480" height="160" rx="6"/>
    <text class="device-text" x="390" y="956" text-anchor="middle">4U SAS Disk Shelf / HBA Storage Shelf</text>
    <text class="device-sub" x="390" y="978" text-anchor="middle">Ready rails / rear SAS + dual power / storage expansion</text>

    <rect class="ups" x="150" y="1056" width="480" height="118" rx="6"/>
    <text class="device-text" x="390" y="1106" text-anchor="middle">3U Battery Backup / UPS</text>
    <text class="device-sub" x="390" y="1128" text-anchor="middle">Heavy equipment at bottom / feeds rear 0U PDUs</text>
  </g>

  <!-- REAR EQUIPMENT -->
  <g id="rear-equipment">
    <rect class="cable-manager" x="930" y="174" width="480" height="34" rx="6"/>
    <text class="device-text" x="1170" y="196" text-anchor="middle">Rear Brush / Cable Egress</text>

    <rect class="patch" x="930" y="216" width="480" height="76" rx="6"/>
    <text class="device-text" x="1170" y="246" text-anchor="middle">Rear Patch Panel Terminations</text>
    <text class="device-sub" x="1170" y="266" text-anchor="middle">Structured cabling exits toward walls / desks / AP drops</text>

    <rect class="switch" x="930" y="300" width="480" height="34" rx="6"/>
    <text class="device-text" x="1170" y="322" text-anchor="middle">Rear of Pro Max 48 PoE / Power + Uplinks</text>

    <rect class="gateway" x="930" y="342" width="480" height="34" rx="6"/>
    <text class="device-text" x="1170" y="364" text-anchor="middle">Gateway Rear IO / WAN + Core SFP+ Uplinks</text>

    <rect class="agg" x="930" y="384" width="480" height="34" rx="6"/>
    <text class="device-text" x="1170" y="406" text-anchor="middle">10Gb SFP+ Backbone — UniFi Pro Aggregation</text>

    <rect class="pdu" x="930" y="426" width="480" height="34" rx="6"/>
    <text class="device-text" x="1170" y="448" text-anchor="middle">Rear-Mounted 1U Pyle PDU / Service Power</text>

    <rect class="server" x="930" y="468" width="480" height="76" rx="6"/>
    <text class="device-text" x="1170" y="498" text-anchor="middle">pve-01 Rear</text>
    <text class="device-sub" x="1170" y="518" text-anchor="middle">2x PSU / 2x SFP+ / iDRAC / Ready Rails</text>

    <rect class="server" x="930" y="552" width="480" height="76" rx="6"/>
    <text class="device-text" x="1170" y="582" text-anchor="middle">pve-02 Rear</text>
    <text class="device-sub" x="1170" y="602" text-anchor="middle">2x PSU / 2x SFP+ / iDRAC / Ready Rails</text>

    <rect class="server" x="930" y="636" width="480" height="76" rx="6"/>
    <text class="device-text" x="1170" y="666" text-anchor="middle">pve-03 Rear</text>
    <text class="device-sub" x="1170" y="686" text-anchor="middle">2x PSU / 2x SFP+ / iDRAC / Ready Rails</text>

    <rect class="server" x="930" y="720" width="480" height="76" rx="6"/>
    <text class="device-text" x="1170" y="750" text-anchor="middle">pve-04 Rear</text>
    <text class="device-sub" x="1170" y="770" text-anchor="middle">2x PSU / 2x SFP+ / iDRAC / Ready Rails</text>

    <rect class="server" x="930" y="804" width="480" height="76" rx="6"/>
    <text class="device-text" x="1170" y="834" text-anchor="middle">pve-05 Rear</text>
    <text class="device-sub" x="1170" y="854" text-anchor="middle">2x PSU / 2x SFP+ / iDRAC / Ready Rails</text>

    <rect class="storage" x="930" y="888" width="480" height="160" rx="6"/>
    <text class="device-text" x="1170" y="956" text-anchor="middle">Disk Shelf Rear</text>
    <text class="device-sub" x="1170" y="978" text-anchor="middle">Dual SAS paths to HBA host / dual PSU to PDU A+B</text>

    <rect class="ups" x="930" y="1056" width="480" height="118" rx="6"/>
    <text class="device-text" x="1170" y="1106" text-anchor="middle">UPS Rear</text>
    <text class="device-sub" x="1170" y="1128" text-anchor="middle">Feeds 0U PDU A + 0U PDU B / battery-backed rack power</text>
  </g>

  <!-- Front switch ports / patch details -->
  <g id="front-port-details">
    <!-- Patch panel ports -->
    <g transform="translate(178 236)">
      <rect class="port" x="0" y="0" width="12" height="7"/><rect class="port" x="16" y="0" width="12" height="7"/><rect class="port" x="32" y="0" width="12" height="7"/><rect class="port" x="48" y="0" width="12" height="7"/>
      <rect class="port" x="64" y="0" width="12" height="7"/><rect class="port" x="80" y="0" width="12" height="7"/><rect class="port" x="96" y="0" width="12" height="7"/><rect class="port" x="112" y="0" width="12" height="7"/>
      <rect class="port" x="128" y="0" width="12" height="7"/><rect class="port" x="144" y="0" width="12" height="7"/><rect class="port" x="160" y="0" width="12" height="7"/><rect class="port" x="176" y="0" width="12" height="7"/>
      <rect class="port" x="192" y="0" width="12" height="7"/><rect class="port" x="208" y="0" width="12" height="7"/><rect class="port" x="224" y="0" width="12" height="7"/><rect class="port" x="240" y="0" width="12" height="7"/>
      <rect class="port" x="256" y="0" width="12" height="7"/><rect class="port" x="272" y="0" width="12" height="7"/><rect class="port" x="288" y="0" width="12" height="7"/><rect class="port" x="304" y="0" width="12" height="7"/>
      <rect class="port" x="320" y="0" width="12" height="7"/><rect class="port" x="336" y="0" width="12" height="7"/><rect class="port" x="352" y="0" width="12" height="7"/><rect class="port" x="368" y="0" width="12" height="7"/>
      <rect class="port" x="0" y="14" width="12" height="7"/><rect class="port" x="16" y="14" width="12" height="7"/><rect class="port" x="32" y="14" width="12" height="7"/><rect class="port" x="48" y="14" width="12" height="7"/>
      <rect class="port" x="64" y="14" width="12" height="7"/><rect class="port" x="80" y="14" width="12" height="7"/><rect class="port" x="96" y="14" width="12" height="7"/><rect class="port" x="112" y="14" width="12" height="7"/>
      <rect class="port" x="128" y="14" width="12" height="7"/><rect class="port" x="144" y="14" width="12" height="7"/><rect class="port" x="160" y="14" width="12" height="7"/><rect class="port" x="176" y="14" width="12" height="7"/>
      <rect class="port" x="192" y="14" width="12" height="7"/><rect class="port" x="208" y="14" width="12" height="7"/><rect class="port" x="224" y="14" width="12" height="7"/><rect class="port" x="240" y="14" width="12" height="7"/>
      <rect class="port" x="256" y="14" width="12" height="7"/><rect class="port" x="272" y="14" width="12" height="7"/><rect class="port" x="288" y="14" width="12" height="7"/><rect class="port" x="304" y="14" width="12" height="7"/>
      <rect class="port" x="320" y="14" width="12" height="7"/><rect class="port" x="336" y="14" width="12" height="7"/><rect class="port" x="352" y="14" width="12" height="7"/><rect class="port" x="368" y="14" width="12" height="7"/>
    </g>

    <!-- 48-port switch ports -->
    <g transform="translate(178 309)">
      <rect class="port" x="0" y="0" width="10" height="6"/><rect class="port" x="14" y="0" width="10" height="6"/><rect class="port" x="28" y="0" width="10" height="6"/><rect class="port" x="42" y="0" width="10" height="6"/>
      <rect class="port" x="56" y="0" width="10" height="6"/><rect class="port" x="70" y="0" width="10" height="6"/><rect class="port" x="84" y="0" width="10" height="6"/><rect class="port" x="98" y="0" width="10" height="6"/>
      <rect class="port" x="112" y="0" width="10" height="6"/><rect class="port" x="126" y="0" width="10" height="6"/><rect class="port" x="140" y="0" width="10" height="6"/><rect class="port" x="154" y="0" width="10" height="6"/>
      <rect class="port" x="168" y="0" width="10" height="6"/><rect class="port" x="182" y="0" width="10" height="6"/><rect class="port" x="196" y="0" width="10" height="6"/><rect class="port" x="210" y="0" width="10" height="6"/>
      <rect class="port" x="224" y="0" width="10" height="6"/><rect class="port" x="238" y="0" width="10" height="6"/><rect class="port" x="252" y="0" width="10" height="6"/><rect class="port" x="266" y="0" width="10" height="6"/>
      <rect class="port" x="280" y="0" width="10" height="6"/><rect class="port" x="294" y="0" width="10" height="6"/><rect class="port" x="308" y="0" width="10" height="6"/><rect class="port" x="322" y="0" width="10" height="6"/>
      <rect class="sfp" x="390" y="-1" width="14" height="8"/><rect class="sfp" x="410" y="-1" width="14" height="8"/><rect class="sfp" x="430" y="-1" width="14" height="8"/><rect class="sfp" x="450" y="-1" width="14" height="8"/>
    </g>
  </g>

  <!-- Rear backbone ports and cables -->
  <g id="rear-cabling">
    <!-- SFP backbone switch port bank -->
    <g transform="translate(962 394)">
      <rect class="sfp" x="0" y="0" width="13" height="8"/><rect class="sfp" x="17" y="0" width="13" height="8"/><rect class="sfp" x="34" y="0" width="13" height="8"/><rect class="sfp" x="51" y="0" width="13" height="8"/>
      <rect class="sfp" x="68" y="0" width="13" height="8"/><rect class="sfp" x="85" y="0" width="13" height="8"/><rect class="sfp" x="102" y="0" width="13" height="8"/><rect class="sfp" x="119" y="0" width="13" height="8"/>
      <rect class="sfp" x="136" y="0" width="13" height="8"/><rect class="sfp" x="153" y="0" width="13" height="8"/><rect class="sfp" x="170" y="0" width="13" height="8"/><rect class="sfp" x="187" y="0" width="13" height="8"/>
      <rect class="sfp" x="204" y="0" width="13" height="8"/><rect class="sfp" x="221" y="0" width="13" height="8"/><rect class="sfp" x="238" y="0" width="13" height="8"/><rect class="sfp" x="255" y="0" width="13" height="8"/>
      <rect class="sfp" x="272" y="0" width="13" height="8"/><rect class="sfp" x="289" y="0" width="13" height="8"/><rect class="sfp" x="306" y="0" width="13" height="8"/><rect class="sfp" x="323" y="0" width="13" height="8"/>
      <rect class="sfp" x="340" y="0" width="13" height="8"/><rect class="sfp" x="357" y="0" width="13" height="8"/><rect class="sfp" x="374" y="0" width="13" height="8"/><rect class="sfp" x="391" y="0" width="13" height="8"/>
    </g>

    <!-- Main rear SFP+ cable spine -->
    <path class="backbone" d="M1420 401 L1460 401 L1460 845"/>

    <!-- Gateway and switch uplinks into backbone -->
    <path class="backbone-thin" d="M1408 317 L1450 317 L1450 401"/>
    <path class="backbone-thin" d="M1408 359 L1440 359 L1440 401"/>

    <!-- Dual 10G links to each R710 -->
    <path class="backbone-thin" d="M1410 490 L1460 490"/>
    <path class="backbone-thin" d="M1410 510 L1460 510"/>
    <path class="backbone-thin" d="M1410 574 L1460 574"/>
    <path class="backbone-thin" d="M1410 594 L1460 594"/>
    <path class="backbone-thin" d="M1410 658 L1460 658"/>
    <path class="backbone-thin" d="M1410 678 L1460 678"/>
    <path class="backbone-thin" d="M1410 742 L1460 742"/>
    <path class="backbone-thin" d="M1410 762 L1460 762"/>
    <path class="backbone-thin" d="M1410 826 L1460 826"/>
    <path class="backbone-thin" d="M1410 846 L1460 846"/>

    <text class="note" x="1548" y="408">rear 10Gb SFP+ backbone</text>
    <text class="muted" x="1548" y="426">all capable servers home-run here</text>

    <!-- SAS cable paths: disk shelf to pve-01/pve-02 HBA hosts -->
    <path class="sas" d="M930 982 C840 940, 840 620, 930 516"/>
    <path class="sas" d="M930 1002 C820 950, 820 704, 930 600"/>
    <text class="note" x="735" y="760">SAS HBA paths</text>
    <text class="muted" x="735" y="778">2m external Mini-SAS</text>

    <!-- Management cables from iDRAC to patch panel/switch -->
    <path class="mgmt" d="M930 528 C870 480, 870 278, 930 254"/>
    <path class="mgmt" d="M930 612 C860 530, 860 286, 930 266"/>
    <path class="mgmt" d="M930 696 C850 580, 850 292, 930 278"/>
    <path class="mgmt" d="M930 780 C840 630, 840 298, 930 286"/>
    <path class="mgmt" d="M930 864 C830 680, 830 305, 930 290"/>
    <text class="note" x="710" y="296">green dashed = iDRAC / mgmt</text>

    <!-- Power cables to dual PDUs -->
    <path class="power-a" d="M930 486 L812 486"/>
    <path class="power-b" d="M1410 486 L1510 486"/>
    <path class="power-a" d="M930 570 L812 570"/>
    <path class="power-b" d="M1410 570 L1510 570"/>
    <path class="power-a" d="M930 654 L812 654"/>
    <path class="power-b" d="M1410 654 L1510 654"/>
    <path class="power-a" d="M930 738 L812 738"/>
    <path class="power-b" d="M1410 738 L1510 738"/>
    <path class="power-a" d="M930 822 L812 822"/>
    <path class="power-b" d="M1410 822 L1510 822"/>
    <path class="power-a" d="M930 940 L812 940"/>
    <path class="power-b" d="M1410 940 L1510 940"/>
    <path class="power-a" d="M930 1016 L812 1016"/>
    <path class="power-b" d="M1410 1016 L1510 1016"/>

    <text class="note" x="1548" y="506">orange/red = dual PSU feeds</text>
    <text class="muted" x="1548" y="524">A-side and B-side power</text>
  </g>

  <!-- Rear port/PSU markers -->
  <g id="rear-port-markers">
    <!-- server rear markers repeated -->
    <g transform="translate(958 488)">
      <circle class="power-dot" cx="0" cy="0" r="5"/><circle class="power-dot" cx="432" cy="0" r="5"/>
      <rect class="sfp" x="392" y="15" width="14" height="8"/><rect class="sfp" x="412" y="15" width="14" height="8"/>
      <rect class="status" x="20" y="14" width="16" height="8"/>
    </g>
    <g transform="translate(958 572)">
      <circle class="power-dot" cx="0" cy="0" r="5"/><circle class="power-dot" cx="432" cy="0" r="5"/>
      <rect class="sfp" x="392" y="15" width="14" height="8"/><rect class="sfp" x="412" y="15" width="14" height="8"/>
      <rect class="status" x="20" y="14" width="16" height="8"/>
    </g>
    <g transform="translate(958 656)">
      <circle class="power-dot" cx="0" cy="0" r="5"/><circle class="power-dot" cx="432" cy="0" r="5"/>
      <rect class="sfp" x="392" y="15" width="14" height="8"/><rect class="sfp" x="412" y="15" width="14" height="8"/>
      <rect class="status" x="20" y="14" width="16" height="8"/>
    </g>
    <g transform="translate(958 740)">
      <circle class="power-dot" cx="0" cy="0" r="5"/><circle class="power-dot" cx="432" cy="0" r="5"/>
      <rect class="sfp" x="392" y="15" width="14" height="8"/><rect class="sfp" x="412" y="15" width="14" height="8"/>
      <rect class="status" x="20" y="14" width="16" height="8"/>
    </g>
    <g transform="translate(958 824)">
      <circle class="power-dot" cx="0" cy="0" r="5"/><circle class="power-dot" cx="432" cy="0" r="5"/>
      <rect class="sfp" x="392" y="15" width="14" height="8"/><rect class="sfp" x="412" y="15" width="14" height="8"/>
      <rect class="status" x="20" y="14" width="16" height="8"/>
    </g>
  </g>

  <!-- Operational notes -->
  <rect class="legend-box" x="70" y="1230" width="705" height="155"/>
  <text class="section-title" x="95" y="1262">Rack Design Rules</text>
  <text class="note" x="95" y="1290">1. Heavy equipment stays low: UPS at U3-U1, disk shelf at U7-U4.</text>
  <text class="note" x="95" y="1312">2. Network equipment stays high: patching, PoE access, gateway, and SFP+ aggregation at U24-U19.</text>
  <text class="note" x="95" y="1334">3. 10Gb SFP+ backbone is rear-facing so server DACs stay short and cable-managed.</text>
  <text class="note" x="95" y="1356">4. Raspberry Pi shelf is shallow front-mounted; rear U18 can hold the existing Pyle PDU as service power.</text>

  <rect class="legend-box" x="815" y="1230" width="705" height="155"/>
  <text class="section-title" x="840" y="1262">Cable Legend</text>
  <line class="backbone" x1="845" y1="1290" x2="905" y2="1290"/><text class="note" x="920" y="1295">10Gb SFP+ DAC / fiber backbone</text>
  <line class="sas" x1="845" y1="1315" x2="905" y2="1315"/><text class="note" x="920" y="1320">External SAS HBA paths to disk shelf</text>
  <line class="mgmt" x1="845" y1="1340" x2="905" y2="1340"/><text class="note" x="920" y="1345">iDRAC / management RJ45 to patch panel</text>
  <line class="power-a" x1="845" y1="1365" x2="905" y2="1365"/><text class="note" x="920" y="1370">A-side power to PDU A</text>
  <line class="power-b" x1="1135" y1="1365" x2="1195" y2="1365"/><text class="note" x="1210" y="1370">B-side power to PDU B</text>
</svg>